# AST/ASF file generated using VICON BodyLanguage
# -----------------------------------------------
:version 1.10
:name VICON
:units
  mass 1.0
  length 0.45
  angle deg
:documentation
   .ast/.asf automatically generated from VICON data using
   VICON BodyBuilder and BodyLanguage model FoxedUp or BRILLIANT.MOD
:root
   order TX TY TZ RX RY RZ
   axis XYZ
   position 0 0 0  
   orientation 0 0 0 
:bonedata
  begin
     id 1 
     name lhipjoint
     direction 0.693937 -0.600361 0.397515 
     length 2.37164 
     axis 0 0 0  XYZ
  end
  begin
     id 2 
     name lfemur
     direction 0.34202 -0.939693 0  
     length 6.18497  
     axis 0 0 20  XYZ
    dof rx ry rz
    limits (-160.0 20.0)
           (-70.0 70.0)
           (-60.0 70.0)
  end
  begin
     id 3 
     name ltibia
     direction 0.34202 -0.939693 0   
     length 6.91601   
     axis 0 0 20   XYZ
    dof rx
    limits (-10.0 170.0)
  end
  begin
     id 4 
     name lfoot
     direction 0.0978718 -0.2689 0.958182   
     length 1.81453   
     axis -90 7.62852e-016 20   XYZ
    dof rx rz
    limits (-45.0 90.0)
           (-70.0 20.0)
  end
  begin
     id 5 
     name ltoes
     direction 1.53569e-011 -4.21951e-011 1   
     length 0.912052   
     axis -90 7.62852e-016 20   XYZ
    dof rx
    limits (-90.0 20.0)
  end
  begin
     id 6 
     name rhipjoint
     direction -0.643996 -0.637876 0.422354   
     length 2.23216  
     axis 0 0 0  XYZ 
  end
  begin
     id 7 
     name rfemur
     direction -0.34202 -0.939693 0   
     length 6.15404   
     axis 0 0 -20   XYZ
    dof rx ry rz
    limits (-160.0 20.0)
           (-70.0 70.0)
           (-70.0 60.0)
  end
  begin
     id 8 
     name rtibia
     direction -0.34202 -0.939693 0   
     length 6.86744   
     axis 0 0 -20   XYZ
    dof rx
    limits (-10.0 170.0)
 end
 begin
     id 9 
     name rfoot
     direction -0.118701 -0.326127 0.937844   
     length 1.9243  
     axis -90 -7.62852e-016 -20   XYZ
    dof rx rz
    limits (-45.0 90.0)
           (-20.0 70.0)
  end
  begin
     id 10 
     name rtoes
     direction -1.5356e-011 -4.2181e-011 1   
     length 0.958865   
     axis -90 -7.62852e-016 -20   XYZ
    dof rx
    limits (-90.0 20.0)
  end
  begin
     id 11 
     name lowerback
     direction 0.0310826 0.968686 -0.246334   
     length 2.00021   
     axis 0 0 0   XYZ
    dof rx ry rz
    limits (-20.0 45.0)
           (-30.0 30.0)
           (-30.0 30.0)
  end
  begin
     id 12 
     name upperback
     direction -0.0152834 0.999474 -0.0286152   
     length 2.03728   
     axis 0 0 0   XYZ
    dof rx ry rz
    limits (-20.0 45.0)
           (-30.0 30.0)
           (-30.0 30.0)
  end
  begin
     id 13 
     name thorax
     direction -0.0323701 0.996236 0.0804149   
     length 2.16   
     axis 0 0 0   XYZ
    dof rx ry rz
    limits (-20.0 45.0)
           (-30.0 30.0)
           (-30.0 30.0)
  end
  begin
     id 14 
     name lowerneck
     direction 0.0307935 0.982251 0.185027   
     length 1.43558   
     axis 0 0 0   XYZ
    dof rx ry rz
    limits (-20.0 45.0)
           (-30.0 30.0)
           (-30.0 30.0)
  end
  begin
     id 15 
     name upperneck
     direction -0.0927153 0.994775 0.0427454   
     length 1.44603   
     axis 0 0 0   XYZ
    dof rx ry rz
    limits (-20.0 45.0)
           (-30.0 30.0)
           (-30.0 30.0)
  end
  begin
     id 16
     name head
     direction -0.0341265 0.999406 -0.00472033  
     length 1.45931  
     axis 0 0 0   XYZ
    dof rx ry rz
    limits (-20.0 45.0)
           (-30.0 30.0)
           (-30.0 30.0)
  end
  begin
     id 17 
     name lclavicle
     direction 0.820755 0.555306 -0.134151  
     length 2.66075  
     axis 0 0 0   XYZ
    dof ry rz
    limits (-20.0 10.0)
           (0.0 20.0)
  end
  begin
     id 18 
     name lhumerus
     direction 1 -4.48971e-011 5.24853e-027   
     length 5.0546   
     axis -180 -30 -90   XYZ
    dof rx ry rz
    limits (-60.0 90.0)
           (-90.0 90.0)
           (-90.0 90.0)
  end
  begin
     id 19
     name lradius
     direction 1 -4.48971e-011 2.76575e-028   
     length 3.39013   
     axis -180 -30 -90   XYZ
    dof rx
    limits (-10.0 170.0)
  end
  begin
     id 20
     name lwrist
     direction 1 -4.48939e-011 -2.27826e-027   
     length 1.69507   
     axis 2.17013e-015 90 90   XYZ
    dof ry
    limits (-180.0 0.0)
 end
  begin
     id 21 
     name lhand
     direction 1 -4.49009e-011 -4.55652e-027   
     length 0.572425   
     axis 2.90745e-015 90 90   XYZ
    dof rx rz
    limits (-90.0 90.0)
           (-45.0 45.0)
  end
  begin
     id 22 
     name lfingers
     direction 1 -4.48955e-011 -9.11303e-027   
     length 0.461504   
     axis 5.81489e-015 90 90   XYZ
    dof rx
    limits (0.0 90.0)
  end
  begin
     id 23
     name lthumb
     direction 0.707107 -6.34929e-011 0.707107   
     length 0.66263   
     axis -90 45 2.85299e-015   XYZ
    dof rx rz
    limits (-45.0 45.0)
           (-45.0 45.0)
  end
  begin
     id 24 
     name rclavicle
     direction -0.754477 0.632921 -0.173712   
     length 2.73081  
     axis 0 0 0   XYZ 
    dof ry rz
    limits (-10.0 20.0)
           (-20.0 0.0)
  end
  begin
     id 25 
     name rhumerus
     direction -1 -4.48969e-011 5.1496e-027  
     length 5.0701   
     axis -180 30 90   XYZ
    dof rx ry rz
    limits (-90.0 60.0)
           (-90.0 90.0)
           (-90.0 90.0)
  end
  begin
     id 26 
     name rradius
     direction -1 -4.48967e-011 -7.15624e-028   
     length 3.14957   
     axis -180 30 90   XYZ
    dof rx
    limits (-10.0 170.0)
  end
  begin
     id 27 
     name rwrist
     direction -1 -4.48938e-011 -2.27826e-027   
     length 1.57479   
     axis 2.17013e-015 -90 -90   XYZ
    dof ry
    limits (-180.0 0.0)
  end
  begin
     id 28
     name rhand
     direction -1 -4.49008e-011 -4.55652e-027   
     length 0.718191   
     axis 2.90745e-015 -90 -90   XYZ
    dof rx rz
    limits (-90.0 90.0)
           (-45.0 45.0)
  end
  begin
     id 29
     name rfingers
     direction -1 -4.48953e-011 -9.11303e-027   
     length 0.579024   
     axis 5.81489e-015 -90 -90   XYZ
    dof rx
    limits (0.0 90.0)
  end
  begin
     id 30
     name rthumb
     direction -0.707107 -6.34937e-011 0.707107   
     length 0.831366   
     axis -90 -45 -2.85299e-015   XYZ
    dof rx rz
    limits (-45.0 45.0)
           (-45.0 45.0)
  end
:hierarchy
  begin
    root lhipjoint rhipjoint lowerback
    lhipjoint lfemur
    lfemur ltibia
    ltibia lfoot
    lfoot ltoes
    rhipjoint rfemur
    rfemur rtibia
    rtibia rfoot
    rfoot rtoes
    lowerback upperback
    upperback thorax
    thorax lowerneck lclavicle rclavicle
    lowerneck upperneck
    upperneck head
    lclavicle lhumerus
    lhumerus lradius
    lradius lwrist
    lwrist lhand lthumb
    lhand lfingers
    rclavicle rhumerus
    rhumerus rradius
    rradius rwrist
    rwrist rhand rthumb
    rhand rfingers
  end

#!OML:ASF H:\Male1\Project 1\Capture day 1\Session 1\Male1.ASF
:FULLY-SPECIFIED
:DEGREES
62
root 32.0174 15.3232 -5.30875 1.66126 -81.6409 -3.5637
lowerback 5.08259 2.19793 -3.15348
upperback 4.88029 2.71553 -0.117669
thorax 2.03996 1.22302 1.55132
lowerneck -12.6396 4.52452 6.05679
upperneck 23.5201 5.34458 -2.83114
head 9.78399 2.58658 -1.36936
rclavicle 1.61016e-014 -7.95139e-015
rhumerus -29.6401 9.90022 -92.3266
rradius 32.8836
rwrist -20.4333
rhand -16.7868 -1.74378
rfingers 7.12502
rthumb 9.44101 -31.5123
lclavicle 1.61016e-014 -7.95139e-015
lhumerus -25.1423 -8.32725 92.4324
lradius 27.3572
lwrist -4.66199
lhand -17.787 12.7695
lfingers 7.12502
lthumb 8.4759 42.5794
rfemur -6.37696 17.7863 22.8019
rtibia 29.2158
rfoot -39.0282 -30.4639
rtoes -7.70879
lfemur -6.70063 -20.4972 -22.6524
ltibia 30.5242
lfoot -29.4909 28.9212
ltoes 1.96565
63
root 32.0122 15.3229 -5.30103 1.77912 -81.6038 -3.62731
lowerback 5.06204 2.21391 -3.15999
upperback 4.88532 2.7376 -0.129496
thorax 2.05583 1.23373 1.54289
lowerneck -12.6433 4.48197 6.07238
upperneck 23.488 5.2752 -2.80633
head 9.76962 2.55899 -1.37202
rclavicle 4.96962e-016 -1.11319e-014
rhumerus -29.6347 9.83418 -92.3288
rradius 32.8364
rwrist -20.4648
rhand -16.856 -1.69381
rfingers 7.12502
rthumb 9.37428 -31.4654
lclavicle 4.96962e-016 -1.11319e-014
lhumerus -25.1778 -8.55589 92.4659
lradius 27.3365
lwrist -4.60707
lhand -17.8684 12.584
lfingers 7.12502
lthumb 8.39731 42.3971
rfemur -6.40357 17.8007 22.7782
rtibia 29.2143
rfoot -39.0997 -30.46
rtoes -7.60401
lfemur -6.73158 -20.5188 -22.6618
ltibia 30.523
lfoot -29.4985 28.9373
ltoes 1.89993
64
root 32.0071 15.3227 -5.29321 1.99006 -81.5526 -3.7937
lowerback 5.07638 2.21962 -3.12906
upperback 4.88303 2.74574 -0.153723
thorax 2.04754 1.23918 1.49985
lowerneck -12.6452 4.44944 6.08507
upperneck 23.4558 5.21495 -2.75899
head 9.75471 2.53783 -1.36519
rclavicle -7.36e-014 1.59028e-014
rhumerus -29.6442 9.78685 -92.3681
rradius 32.7976
rwrist -20.4893
rhand -16.8819 -1.61544
rfingers 7.12502
rthumb 9.3493 -31.3881
lclavicle -7.36e-014 1.59028e-014
lhumerus -25.2339 -8.79361 92.4719
lradius 27.3388
lwrist -4.52569
lhand -17.937 12.5183
lfingers 7.12502
lthumb 8.33111 42.334
rfemur -6.3978 17.8692 22.7858
rtibia 29.1878
rfoot -39.2304 -30.4868
rtoes -7.44837
lfemur -6.77774 -20.4575 -22.6398
ltibia 30.5446
lfoot -29.4494 28.877
ltoes 1.77493
65
root 32.002 15.3228 -5.28515 2.22003 -81.4967 -3.98197
lowerback 5.07976 2.22756 -3.09567
upperback 4.89348 2.75725 -0.17763
thorax 2.05852 1.2458 1.45636
lowerneck -12.6445 4.4191 6.10728
upperneck 23.413 5.15789 -2.7196
head 9.73629 2.51822 -1.36234
rclavicle -1.21259e-014 1.23246e-014
rhumerus -29.6368 9.73999 -92.4027
rradius 32.7667
rwrist -20.4961
rhand -16.8527 -1.54599
rfingers 7.12502
rthumb 9.3775 -31.3174
lclavicle -1.21259e-014 1.23246e-014
lhumerus -25.2847 -9.02998 92.4689
lradius 27.3671
lwrist -4.43022
lhand -18.0222 12.4995
lfingers 7.12502
lthumb 8.24893 42.3184
rfemur -6.37046 17.9795 22.8057
rtibia 29.1382
rfoot -39.3945 -30.5371
rtoes -7.28299
lfemur -6.84259 -20.3395 -22.6028
ltibia 30.587
lfoot -29.3633 28.7677
ltoes 1.58716
66
root 31.9968 15.3233 -5.27676 2.45067 -81.4451 -4.16721
lowerback 5.082 2.23413 -3.05817
upperback 4.90306 2.76716 -0.207608
thorax 2.0698 1.25184 1.40443
lowerneck -12.6438 4.40002 6.14594
upperneck 23.3744 5.11512 -2.68955
head 9.72089 2.50556 -1.36364
rclavicle -3.42904e-014 8.34896e-015
rhumerus -29.6265 9.6957 -92.4427
rradius 32.7398
rwrist -20.4802
rhand -16.7802 -1.50258
rfingers 7.12502
rthumb 9.44744 -31.2708
lclavicle -3.42904e-014 8.34896e-015
lhumerus -25.3578 -9.20843 92.4287
lradius 27.4348
lwrist -4.32275
lhand -17.9981 12.6982
lfingers 7.12502
lthumb 8.27217 42.5162
rfemur -6.33631 18.1112 22.8258
rtibia 29.0739
rfoot -39.5643 -30.5957
rtoes -7.13369
lfemur -6.92535 -20.1898 -22.5587
ltibia 30.6435
lfoot -29.2619 28.6292
ltoes 1.38537
67
root 31.9915 15.3241 -5.26781 2.63067 -81.4055 -4.29135
lowerback 5.0694 2.2452 -3.0479
upperback 4.91426 2.78279 -0.230309
thorax 2.08927 1.25973 1.37557
lowerneck -12.6444 4.38566 6.18839
upperneck 23.3341 5.08307 -2.67909
head 9.70626 2.49604 -1.371
rclavicle 4.57205e-015 7.95139e-016
rhumerus -29.6058 9.66107 -92.4628
rradius 32.7126
rwrist -20.457
rhand -16.6934 -1.49096
rfingers 7.12502
rthumb 9.53118 -31.2554
lclavicle 4.57205e-015 7.95139e-016
lhumerus -25.4737 -9.29273 92.369
lradius 27.5836
lwrist -4.22027
lhand -17.8933 13.0034
lfingers 7.12502
lthumb 8.37327 42.8174
rfemur -6.30973 18.2378 22.8271
rtibia 29.0041
rfoot -39.6974 -30.6305
rtoes -6.94775
lfemur -7.02522 -20.0222 -22.521
ltibia 30.7074
lfoot -29.1613 28.4792
ltoes 1.1983
68
root 31.9858 15.3249 -5.25805 2.64747 -81.3859 -4.23711
lowerback 5.02784 2.25855 -3.08473
upperback 4.93157 2.80118 -0.249218
thorax 2.12887 1.2672 1.37804
lowerneck -12.6436 4.37841 6.22459
upperneck 23.2849 5.06592 -2.68165
head 9.68907 2.49151 -1.37998
rclavicle 2.15184e-014 -9.14409e-015
rhumerus -29.5622 9.64926 -92.4653
rradius 32.6857
rwrist -20.4492
rhand -16.6169 -1.53732
rfingers 7.12502
rthumb 9.60496 -31.2984
lclavicle 2.15184e-014 -9.14409e-015
lhumerus -25.6538 -9.20613 92.2624
lradius 27.8532
lwrist -4.12696
lhand -17.6714 13.1707
lfingers 7.12502
lthumb 8.58748 42.976
rfemur -6.30099 18.3378 22.7824
rtibia 28.9359
rfoot -39.7479 -30.6017
rtoes -6.63535
lfemur -7.14013 -19.8367 -22.5127
ltibia 30.7741
lfoot -29.0703 28.3341
ltoes 0.998933
69
root 31.9796 15.3255 -5.24742 2.54919 -81.3888 -4.04945
lowerback 5.02141 2.25195 -3.13233
upperback 4.91241 2.79165 -0.286641
thorax 2.1128 1.26227 1.36628
lowerneck -12.6424 4.3939 6.23844
upperneck 23.2752 5.07668 -2.65096
head 9.6857 2.50111 -1.37024
rclavicle 3.32467e-014 -1.19271e-015
rhumerus -29.5468 9.68227 -92.5129
rradius 32.6572
rwrist -20.4584
rhand -16.5593 -1.64134
rfingers 7.12502
rthumb 9.66057 -31.3998
lclavicle 3.32467e-014 -1.19271e-015
lhumerus -26.0012 -8.89969 92.0592
lradius 28.3238
lwrist -4.02254
lhand -17.2799 13.3144
lfingers 7.12502
lthumb 8.96521 43.1039
rfemur -6.31633 18.4143 22.6975
rtibia 28.8722
rfoot -39.7194 -30.5049
rtoes -6.19024
lfemur -7.26992 -19.6221 -22.5259
ltibia 30.8427
lfoot -28.9967 28.1818
ltoes 0.814858
70
root 31.9726 15.3261 -5.2357 2.38412 -81.4113 -3.77607
lowerback 5.011 2.23153 -3.19654
upperback 4.8805 2.76352 -0.332422
thorax 2.08627 1.24816 1.35574
lowerneck -12.6484 4.42524 6.23985
upperneck 23.278 5.10888 -2.60828
head 9.6885 2.52064 -1.35143
rclavicle 1.98785e-014 3.97569e-016
rhumerus -29.5202 9.72332 -92.5738
rradius 32.6055
rwrist -20.4518
rhand -16.5068 -1.71107
rfingers 7.12502
rthumb 9.7112 -31.4672
lclavicle 1.98785e-014 3.97569e-016
lhumerus -26.5117 -8.41219 91.7744
lradius 29.0528
lwrist -3.85256
lhand -16.9146 12.9413
lfingers 7.12502
lthumb 9.31774 42.7154
rfemur -6.35556 18.4692 22.5799
rtibia 28.8095
rfoot -39.6266 -30.366
rtoes -5.70284
lfemur -7.41729 -19.3599 -22.551
ltibia 30.9182
lfoot -28.9425 27.9991
ltoes 0.652785
71
root 31.9648 15.3265 -5.2226 2.21146 -81.4519 -3.48352
lowerback 5.01105 2.1932 -3.25563
upperback 4.83526 2.71136 -0.391284
thorax 2.04207 1.22292 1.32912
lowerneck -12.653 4.47438 6.24473
upperneck 23.2771 5.16455 -2.56319
head 9.69092 2.55158 -1.32941
rclavicle -4.08502e-014 -3.97569e-016
rhumerus -29.4871 9.76649 -92.6602
rradius 32.5544
rwrist -20.4231
rhand -16.4325 -1.76913
rfingers 7.12502
rthumb 9.78294 -31.5219
lclavicle -4.08502e-014 -3.97569e-016
lhumerus -27.2129 -7.81137 91.4104
lradius 30.0821
lwrist -3.51726
lhand -16.5142 12.605
lfingers 7.12502
lthumb 9.70412 42.3615
rfemur -6.40758 18.5138 22.4443
rtibia 28.7393
rfoot -39.485 -30.2298
rtoes -5.31821
lfemur -7.57851 -19.0466 -22.5799
ltibia 31.0095
lfoot -28.9156 27.7767
ltoes 0.504433
